# xmcd
#
# Track frame offsets: 
#        150
#        19435
#        37689
#        59253
#        71810
#        85700
#        109435
#        126800
#        143366
#        160757
#
# Disc length: 2425 seconds
#
# Revision: 2
# Processed by: cddbd v1.5.2PL0 Copyright (c) Steve Scherf et al.
# Submitted via: ExactAudioCopy v0.99pb3
#
DISCID=7f09770a
DTITLE=Hazlewood, Lee - Bootleg Dreams and Counterfeid Demos
DYEAR=2002
DGENRE=Rock
TTITLE0=Holdin On Too Long
TTITLE1=Back On The Street Again
TTITLE2=Gypsies And Indians
TTITLE3=Drinkin' Kolsch In Cologne
TTITLE4=Is Making A Little Love Out Of The Question?
TTITLE5=As Time Goes By
TTITLE6=She Rode It
TTITLE7=She Don't Walk On Water
TTITLE8=All I Ever Lost Was Her Love
TTITLE9=Lost On The Wrong Road
EXTD=YEAR: 2002
EXTT0=
EXTT1=
EXTT2=
EXTT3=
EXTT4=
EXTT5=
EXTT6=
EXTT7=
EXTT8=
EXTT9=
PLAYORDER=
